<svg width="216" height="198" viewBox="0 0 216 210" fill="none" xmlns="http://www.w3.org/2000/svg">
    <g id="pasta-svgrepo-com 1" clipPath="url(#clip0_9_640)">
        <g id="SVGRepo_iconCarrier">
        <path
            id="Vector"
            d="M154.495 79.0616L162.071 107.333C174.57 153.98 145.94 202.559 98.451 215.283C50.9618 228.008 1.87953 200.252 -10.6196 153.605L-18.1948 125.334L154.495 79.0616Z"
            fill="#504A66"
        />
        <path
            id="Vector_2"
            d="M161.735 106.081L162.071 107.332C174.57 153.98 145.94 202.558 98.4509 215.283C50.9621 228.007 1.87953 200.252 -10.6197 153.604L-10.955 152.353L161.735 106.081Z"
            fill="#DDC98B"
        />
        <path
            id="Vector_3"
            d="M164.865 134.308C162.799 171.409 136.766 205.017 98.451 215.283C60.1356 225.55 20.7877 209.461 0.44873 178.363L164.865 134.308Z"
            fill="#BC9A5E"
        />
        <path
            id="Vector_4"
            d="M154.495 79.0616L162.071 107.333C174.57 153.98 145.94 202.559 98.451 215.283C50.9622 228.008 1.87964 200.253 -10.6196 153.605L-18.1948 125.334L-4.57177 121.684L3.00343 149.955C13.5313 189.245 54.7187 212.469 94.8179 201.724C134.917 190.98 158.975 150.273 148.448 110.983L140.872 82.7119L154.495 79.0616Z"
            fill="#332D46"
        />
        <path
            id="Vector_5"
            d="M136.069 49.4427L106.597 125.936C105.86 127.848 103.722 128.817 101.798 128.122C101.778 128.115 101.759 128.108 101.739 128.1C99.8005 127.363 98.8325 125.199 99.5769 123.267L129.049 46.7748C129.794 44.8426 131.971 43.8687 133.906 44.6105C135.845 45.3471 136.813 47.5106 136.069 49.4427Z"
            fill="#5B5B5B"
        />
        <path
            id="Vector_6"
            d="M126.239 31.0943L128.903 24.3408L133.672 12.264C136.173 5.92282 143.473 2.70441 149.891 5.11264C156.31 7.52127 159.512 14.6794 157.01 21.0204L152.243 33.0971L149.576 39.8512L144.81 51.9274C142.305 58.2694 135.009 61.4872 128.59 59.0799C122.169 56.6723 118.969 49.5127 121.47 43.1711L126.239 31.0943Z"
            fill="#504A66"
        />
        <path
            id="Vector_7"
            d="M128.545 59.0616C122.154 56.6372 118.974 49.4976 121.47 43.1715L126.239 31.0947L128.903 24.3412L133.672 12.2644C135.991 6.38506 142.434 3.19382 148.475 4.67848L128.545 59.0616Z"
            fill="#332D46"
        />
        <path
            id="Vector_8"
            d="M92.4529 106.045L123.107 117.546L121.398 161.654C120.744 178.506 97.0344 185.412 81.0847 179.428L81.0831 179.427C65.1343 173.444 52.2926 152.821 63.3911 139.893L92.4529 106.045Z"
            fill="#9E9E9E"
        />
        <path
            id="Vector_9"
            d="M104.601 132.432L103.658 156.779C103.578 158.845 101.831 160.46 99.7565 160.386C99.3545 160.371 98.9689 160.294 98.61 160.164C97.1181 159.625 96.0799 158.174 96.1445 156.508L97.0869 132.161C97.1669 130.095 98.9141 128.48 100.989 128.554C103.063 128.628 104.681 130.365 104.601 132.432ZM81.0018 145.188C78.9267 145.113 77.1797 146.728 77.0999 148.795L76.8881 154.276C76.8235 155.942 77.8616 157.393 79.3539 157.931C79.7129 158.061 80.0982 158.138 80.5003 158.153C82.5754 158.227 84.3224 156.613 84.4023 154.546L84.614 149.065C84.6937 146.999 83.0755 145.263 81.0018 145.188Z"
            fill="#7F7F7F"
        />
        </g>
    </g>
    <defs>
        <clipPath id="clip0_9_640">
        <rect width="215.239" height="215.239" fill="white" transform="translate(-48 55.708) rotate(-15)" />
        </clipPath>
    </defs>
        <g id="SVGRepo_iconCarrier">
        <path
            id="Vector"
            d="M154.495 79.0616L162.071 107.333C174.57 153.98 145.94 202.559 98.451 215.283C50.9618 228.008 1.87953 200.252 -10.6196 153.605L-18.1948 125.334L154.495 79.0616Z"
            fill="#504A66"
        />
        <path
            id="Vector_2"
            d="M161.735 106.081L162.071 107.332C174.57 153.98 145.94 202.558 98.4509 215.283C50.9621 228.007 1.87953 200.252 -10.6197 153.604L-10.955 152.353L161.735 106.081Z"
            fill="#DDC98B"
        />
        <path
            id="Vector_3"
            d="M164.865 134.308C162.799 171.409 136.766 205.017 98.451 215.283C60.1356 225.55 20.7877 209.461 0.44873 178.363L164.865 134.308Z"
            fill="#BC9A5E"
        />
        <path
            id="Vector_4"
            d="M154.495 79.0616L162.071 107.333C174.57 153.98 145.94 202.559 98.451 215.283C50.9622 228.008 1.87964 200.253 -10.6196 153.605L-18.1948 125.334L-4.57177 121.684L3.00343 149.955C13.5313 189.245 54.7187 212.469 94.8179 201.724C134.917 190.98 158.975 150.273 148.448 110.983L140.872 82.7119L154.495 79.0616Z"
            fill="#332D46"
        />
        <path
            id="Vector_5"
            d="M136.069 49.4427L106.597 125.936C105.86 127.848 103.722 128.817 101.798 128.122C101.778 128.115 101.759 128.108 101.739 128.1C99.8005 127.363 98.8325 125.199 99.5769 123.267L129.049 46.7748C129.794 44.8426 131.971 43.8687 133.906 44.6105C135.845 45.3471 136.813 47.5106 136.069 49.4427Z"
            fill="#5B5B5B"
        />
        <path
            id="Vector_6"
            d="M126.239 31.0943L128.903 24.3408L133.672 12.264C136.173 5.92282 143.473 2.70441 149.891 5.11264C156.31 7.52127 159.512 14.6794 157.01 21.0204L152.243 33.0971L149.576 39.8512L144.81 51.9274C142.305 58.2694 135.009 61.4872 128.59 59.0799C122.169 56.6723 118.969 49.5127 121.47 43.1711L126.239 31.0943Z"
            fill="#504A66"
        />
        <path
            id="Vector_7"
            d="M128.545 59.0616C122.154 56.6372 118.974 49.4976 121.47 43.1715L126.239 31.0947L128.903 24.3412L133.672 12.2644C135.991 6.38506 142.434 3.19382 148.475 4.67848L128.545 59.0616Z"
            fill="#332D46"
        />
        <path
            id="Vector_8"
            d="M92.4529 106.045L123.107 117.546L121.398 161.654C120.744 178.506 97.0344 185.412 81.0847 179.428L81.0831 179.427C65.1343 173.444 52.2926 152.821 63.3911 139.893L92.4529 106.045Z"
            fill="#9E9E9E"
        />
        <path
            id="Vector_9"
            d="M104.601 132.432L103.658 156.779C103.578 158.845 101.831 160.46 99.7565 160.386C99.3545 160.371 98.9689 160.294 98.61 160.164C97.1181 159.625 96.0799 158.174 96.1445 156.508L97.0869 132.161C97.1669 130.095 98.9141 128.48 100.989 128.554C103.063 128.628 104.681 130.365 104.601 132.432ZM81.0018 145.188C78.9267 145.113 77.1797 146.728 77.0999 148.795L76.8881 154.276C76.8235 155.942 77.8616 157.393 79.3539 157.931C79.7129 158.061 80.0982 158.138 80.5003 158.153C82.5754 158.227 84.3224 156.613 84.4023 154.546L84.614 149.065C84.6937 146.999 83.0755 145.263 81.0018 145.188Z"
            fill="#7F7F7F"
        />
        </g>
    <defs>
        <clipPath id="clip0_9_640">
        <rect width="215.239" height="215.239" fill="white" transform="translate(-48 55.708) rotate(-15)" />
        </clipPath>
    </defs>
</svg>