<svg
    width="20"
    height="20"
    viewBox="0 0 20 20"
    fill="none"
    xmlns="http://www.w3.org/2000/svg"
>
    <path
        d="M10.239 5.14146L1 14.3805V19H5.61952L14.8586 9.76096M10.239 5.14146L13.5519 1.82851L13.554 1.82654C14.01 1.3705 14.2384 1.14208 14.5017 1.05653C14.7337 0.981158 14.9835 0.981158 15.2155 1.05653C15.4786 1.14202 15.7068 1.37018 16.1622 1.82557L18.1714 3.83483C18.6288 4.29219 18.8576 4.52097 18.9433 4.78466C19.0187 5.01661 19.0186 5.26646 18.9433 5.49841C18.8577 5.76191 18.6292 5.99035 18.1725 6.44704L18.1714 6.44803L14.8586 9.76096M10.239 5.14146L14.8586 9.76096"
        stroke="#332D46"
        strokeWidth="2"
        strokeLinecap="round"
        strokeLinejoin="round"
    />
</svg>